<?xml version="1.0" standalone="no"?>
<!DOCTYPE svg PUBLIC "-//W3C//DTD SVG 20010904//EN"
 "http://www.w3.org/TR/2001/REC-SVG-20010904/DTD/svg10.dtd">
<svg version="1.0" xmlns="http://www.w3.org/2000/svg"
 width="686.000000pt" height="899.000000pt" viewBox="0 0 686.000000 899.000000"
 preserveAspectRatio="xMidYMid meet">

<g transform="translate(0.000000,899.000000) scale(0.100000,-0.100000)"
fill="#000000" stroke="none">
<path d="M0 6410 l0 -2579 43 -11 c23 -6 80 -23 127 -37 47 -14 120 -34 162
-44 43 -10 135 -36 205 -57 71 -22 154 -42 185 -46 65 -7 129 -36 171 -78 16
-15 33 -28 38 -28 6 0 -3 11 -18 25 -15 13 -23 25 -18 25 6 0 65 -16 130 -36
66 -19 140 -42 165 -49 25 -7 81 -25 125 -40 86 -30 184 -55 226 -59 14 -2 31
-6 37 -10 16 -10 34 2 25 17 -3 7 2 4 13 -5 25 -22 43 -91 54 -207 5 -59 16
-108 31 -137 14 -31 18 -49 11 -56 -7 -7 -12 3 -17 31 -6 34 -10 41 -25 36
-11 -4 -20 1 -24 11 -6 16 -8 16 -20 -1 -7 -10 -18 -15 -23 -12 -24 15 -20
-35 5 -64 21 -26 31 -30 63 -27 32 3 40 -1 53 -23 9 -15 16 -33 16 -40 0 -19
36 -92 115 -229 56 -97 85 -162 128 -290 30 -91 63 -201 72 -245 18 -90 26
-101 110 -158 79 -53 168 -143 234 -238 14 -18 30 -38 38 -42 7 -4 13 -18 13
-31 0 -22 29 -71 30 -49 0 6 3 19 7 29 4 11 3 15 -4 11 -12 -7 -23 23 -23 64
0 33 27 99 40 99 6 0 10 11 10 25 0 14 4 25 8 25 13 0 38 -23 50 -45 11 -19
11 -18 12 6 0 25 -31 104 -85 214 -17 35 -68 93 -163 186 -151 149 -176 187
-217 330 -28 99 -74 234 -105 303 -33 78 -116 335 -135 419 -3 17 -2 26 4 23
5 -4 12 -20 16 -36 7 -31 20 -39 28 -17 3 7 9 2 15 -13 9 -21 11 -22 11 -5 1
23 17 9 23 -20 2 -11 10 -19 16 -18 7 2 12 -4 12 -12 0 -8 7 -15 16 -15 10 0
14 -6 11 -14 -3 -8 -1 -16 5 -18 7 -3 11 -29 11 -66 -1 -34 3 -62 7 -62 5 0
16 -7 25 -16 22 -22 142 -63 185 -64 55 -1 148 -63 97 -65 -28 -2 -65 -26
-104 -68 -50 -54 -68 -93 -77 -167 -6 -47 -3 -62 18 -100 13 -25 33 -50 44
-55 34 -18 52 -37 45 -48 -3 -6 -1 -7 6 -3 18 12 76 -70 96 -134 7 -24 89
-142 128 -185 73 -81 117 -193 117 -302 l0 -78 54 -47 c30 -27 57 -48 61 -48
18 0 77 -57 92 -87 9 -19 37 -58 62 -86 26 -29 69 -85 96 -126 28 -40 76 -103
107 -140 32 -36 100 -118 152 -181 81 -99 285 -310 299 -310 9 0 -5 45 -18 55
-7 6 -15 20 -19 33 -4 12 -12 22 -17 22 -5 0 -9 11 -9 25 0 14 -6 25 -14 25
-9 0 -12 8 -9 24 3 16 -2 31 -16 45 -11 11 -18 27 -15 36 4 10 0 15 -12 16
-18 0 -18 1 0 8 19 7 19 8 0 15 -19 8 -19 8 1 16 20 9 20 9 0 15 -12 4 -22 16
-22 28 -1 12 -9 27 -18 33 -8 6 -15 22 -15 35 0 31 -25 79 -50 96 -11 8 -20
25 -20 39 0 18 -5 24 -21 24 -12 0 -23 8 -26 20 -3 11 -9 20 -13 20 -4 0 -11
11 -14 25 -4 14 -10 23 -15 20 -5 -2 -11 5 -15 18 -3 12 -13 31 -23 42 -28 31
-43 72 -43 120 0 25 -4 45 -10 45 -5 0 -7 -7 -4 -15 4 -8 2 -15 -4 -15 -5 0
-12 11 -14 25 -4 18 -1 25 11 25 11 0 12 3 4 8 -7 4 -10 24 -9 45 2 25 -1 37
-9 37 -15 0 -28 28 -19 41 3 5 -2 12 -10 15 -9 3 -13 10 -10 15 3 5 0 9 -6 9
-6 0 -8 4 -5 10 3 5 -10 27 -31 47 -74 76 -230 267 -277 339 -37 58 -45 78
-38 92 5 10 6 24 1 32 -4 7 -6 19 -3 26 2 7 -32 50 -77 96 -101 102 -120 128
-132 180 -7 33 -6 44 8 60 17 18 16 20 -19 53 -42 40 -74 114 -54 127 7 4 21
5 32 1 26 -8 130 -79 166 -112 15 -14 49 -45 76 -68 42 -36 125 -158 94 -139
-6 4 -11 2 -11 -4 0 -17 33 -70 43 -70 4 0 5 4 2 10 -3 5 -1 18 4 27 9 16 10
14 11 -9 0 -20 4 -26 15 -22 11 4 20 -5 30 -30 9 -20 13 -41 10 -46 -4 -6 0
-10 8 -10 15 0 49 -57 67 -115 7 -22 26 -59 41 -82 16 -22 54 -94 85 -159 31
-65 97 -180 148 -255 50 -76 113 -173 140 -216 45 -71 50 -76 56 -53 3 14 16
30 29 36 12 6 35 23 50 38 15 14 30 24 33 20 11 -11 53 18 101 69 26 28 47 55
47 59 0 5 7 8 15 8 18 0 85 66 85 84 0 28 45 66 78 66 19 0 62 16 99 35 66 35
128 46 135 23 7 -19 80 44 74 64 -2 10 2 22 10 29 8 6 14 20 14 30 0 11 5 19
10 19 6 0 10 9 10 21 0 11 5 29 11 40 6 11 12 30 14 42 3 12 9 31 14 42 24 51
51 153 52 194 0 53 19 113 36 118 6 2 19 -14 29 -36 10 -23 23 -42 28 -42 6
-1 16 -2 23 -3 16 -1 42 -37 43 -57 0 -9 11 -28 25 -43 43 -47 54 -81 65 -198
7 -88 6 -134 -5 -208 -18 -127 -27 -262 -19 -295 l7 -26 27 26 c26 25 27 29
33 183 4 86 12 213 18 282 10 106 9 140 -4 224 -18 113 -10 161 21 134 9 -9
23 -17 31 -20 8 -2 33 -31 56 -64 28 -40 49 -60 66 -62 l24 -4 -26 29 c-94
103 -229 353 -191 353 6 0 14 -4 17 -10 11 -18 23 -11 18 10 -3 11 -1 20 4 20
14 0 5 90 -18 182 -10 43 -19 100 -19 128 0 45 5 57 55 123 83 110 145 190
166 215 10 12 19 31 19 43 0 11 7 27 15 35 8 8 12 21 9 29 -7 16 -34 8 -34
-10 0 -7 -3 -15 -7 -17 -5 -1 -19 -25 -32 -53 -14 -27 -39 -69 -57 -92 -18
-23 -35 -48 -38 -55 -5 -10 -7 -10 -12 0 -8 16 -25 5 -18 -12 4 -9 -4 -16 -23
-20 -21 -5 -32 -17 -45 -47 -12 -29 -22 -40 -35 -37 -10 1 -39 -11 -64 -28
-48 -33 -99 -51 -99 -35 0 5 18 40 40 79 22 38 40 74 40 81 0 22 -17 10 -48
-34 -17 -25 -37 -45 -43 -45 -8 0 -9 4 0 13 6 8 8 17 4 21 -4 3 -32 -20 -63
-51 -95 -96 -145 -140 -171 -148 -34 -11 -79 -14 -79 -5 0 4 -39 6 -87 5 -71
-2 -95 1 -121 16 -19 11 -37 17 -42 14 -5 -3 -32 -8 -60 -11 -48 -5 -50 -5
-50 20 0 16 -7 27 -20 31 -11 3 -20 11 -20 17 0 14 -81 0 -100 -18 -11 -11
-11 -14 -1 -14 10 0 11 -3 2 -13 -6 -8 -8 -17 -4 -20 3 -4 1 -7 -5 -7 -6 0
-14 5 -17 10 -4 6 -11 7 -17 4 -6 -4 -17 1 -24 11 -12 15 -32 20 -100 24 -18
1 -31 8 -80 50 -7 6 -15 6 -22 -1 -7 -7 -16 -6 -30 1 -15 8 -21 8 -25 -2 -3
-9 -11 -8 -33 4 -16 9 -42 19 -59 23 -16 4 -38 14 -47 23 -11 10 -29 14 -50
10 -41 -6 -86 16 -98 48 -7 20 -14 23 -41 18 -25 -4 -31 -2 -26 10 3 8 0 20
-6 26 -21 21 -23 18 -28 -53 -1 -16 -6 -23 -15 -19 -8 3 -14 -1 -14 -10 0 -14
-3 -14 -29 1 -19 10 -27 22 -23 32 3 8 2 12 -2 9 -4 -4 -19 4 -33 17 -14 13
-29 21 -34 18 -5 -3 -9 1 -10 8 -1 16 -69 74 -69 59 0 -6 -5 -11 -11 -11 -6 0
-8 8 -5 18 5 16 2 18 -23 14 -23 -3 -33 2 -50 26 -11 17 -21 42 -21 56 0 14
-4 26 -9 26 -5 0 -16 16 -25 35 -9 19 -22 35 -29 35 -7 0 -6 4 3 10 13 8 12
10 -2 10 -21 0 -24 16 -6 24 9 3 7 10 -8 23 -12 11 -25 29 -28 41 -4 12 -11
22 -16 22 -6 0 -7 20 -3 45 4 30 2 45 -5 45 -15 0 -8 80 8 90 8 5 9 16 5 30
-5 14 -2 25 6 31 11 6 10 13 -1 36 -7 15 -15 41 -17 57 -2 16 -8 35 -15 43 -6
7 -8 16 -5 19 3 3 -6 27 -19 54 -25 49 -25 106 0 122 8 5 6 17 -6 38 -14 25
-15 30 -3 30 8 0 15 8 15 19 0 21 26 31 85 31 l40 0 3 -52 c3 -50 43 -148 61
-148 14 0 19 23 10 46 -4 12 -5 25 -2 28 11 10 45 7 38 -4 -3 -5 5 -15 19 -22
19 -8 26 -19 26 -40 0 -20 5 -28 18 -28 10 0 23 -5 30 -12 9 -9 12 -9 12 0 0
15 26 16 36 1 8 -14 -14 -29 -33 -22 -22 9 -15 -23 10 -40 21 -14 21 -16 3
-23 -10 -4 -27 -2 -37 4 -10 7 -25 12 -33 12 -8 0 -20 8 -25 18 -6 9 -11 12
-11 5 0 -6 7 -19 17 -28 28 -29 60 -35 113 -23 60 14 76 4 85 -51 5 -33 10
-38 27 -33 17 4 19 1 14 -15 -5 -17 -1 -21 23 -25 17 -2 33 0 36 6 3 7 7 7 11
-1 7 -15 34 -17 34 -3 0 6 5 10 10 10 6 0 10 -7 10 -15 0 -8 5 -15 10 -15 6 0
10 4 10 9 0 14 53 20 68 9 9 -8 16 -8 24 0 7 7 25 12 41 12 16 0 36 7 44 16
10 10 27 14 45 12 18 -3 28 0 28 8 0 6 7 15 16 18 9 4 129 6 266 5 151 -1 253
2 259 8 6 6 -49 12 -158 16 -92 4 -178 10 -190 13 -22 6 -22 6 4 30 21 20 36
24 77 23 28 -1 74 6 101 15 49 17 214 24 237 10 6 -4 28 -1 50 7 34 11 41 11
49 -2 12 -19 11 -66 -1 -74 -6 -3 -10 -11 -10 -17 0 -15 76 -2 120 21 20 10
51 22 70 26 19 4 51 15 70 25 61 32 75 31 121 -8 48 -42 90 -45 148 -11 20 12
38 16 45 11 6 -5 19 -12 28 -15 14 -5 17 0 15 33 -1 30 5 45 26 66 15 15 27
33 27 41 0 22 39 73 56 73 8 0 14 9 14 20 0 11 -3 20 -8 20 -4 0 -6 17 -4 38
3 26 -1 42 -12 51 -9 8 -16 24 -16 37 0 16 -6 24 -16 24 -13 0 -15 7 -11 34 5
33 3 36 -28 46 -29 10 -34 16 -37 48 -2 30 -7 37 -25 38 -35 2 -53 12 -47 28
4 9 -1 13 -13 13 -12 -2 -21 8 -28 31 -9 31 -25 44 -25 20 0 -7 -10 -1 -23 14
-12 14 -53 48 -92 74 -38 26 -74 54 -78 61 -5 8 -35 26 -68 40 -41 18 -59 31
-59 44 0 37 33 42 249 35 238 -7 325 -22 429 -72 40 -20 79 -33 88 -30 19 7
57 91 59 131 1 17 3 40 4 53 1 17 9 24 31 29 17 3 30 11 30 19 0 7 5 16 12 20
8 5 9 2 3 -12 -5 -10 -9 -35 -9 -54 -1 -33 -3 -35 -33 -34 -18 0 -33 -1 -33
-2 0 -2 9 -18 19 -36 20 -35 42 -190 34 -245 -3 -17 2 -44 12 -63 9 -18 12
-29 6 -26 -6 4 -11 0 -11 -8 0 -10 6 -13 15 -10 11 5 15 -1 15 -22 0 -23 -2
-26 -11 -14 -9 12 -10 12 -5 -3 3 -10 6 -21 6 -23 0 -3 5 -2 10 1 6 4 10 -11
10 -37 0 -29 -3 -38 -9 -29 -6 10 -9 1 -8 -27 2 -43 17 -60 17 -19 0 13 4 27
8 33 5 5 19 37 32 72 22 62 23 62 55 56 18 -3 42 -1 53 5 24 13 35 63 20 96
-12 28 -28 33 -28 10 0 -8 -4 -15 -9 -15 -5 0 -16 -3 -24 -6 -22 -8 -25 22
-10 86 7 30 20 93 28 140 8 47 22 105 31 129 14 35 15 61 9 135 -5 50 -8 124
-8 165 0 70 -1 72 -16 52 -17 -22 -51 -21 -51 3 1 17 26 47 33 39 4 -3 7 0 7
7 0 9 5 8 19 -4 19 -17 20 -17 27 21 9 46 9 101 1 109 -7 8 2 35 43 129 5 11
14 46 21 78 9 42 19 63 36 74 19 13 23 24 23 72 0 60 11 88 29 77 7 -5 11 2
11 16 0 13 -9 29 -21 36 -11 7 -18 19 -16 27 8 20 -55 27 -70 8 -15 -19 -31
-20 -277 -10 -160 7 -201 6 -207 -5 -7 -10 -11 -10 -21 0 -16 16 -82 16 -109
0 -17 -10 -23 -10 -26 0 -7 18 -117 16 -133 -3 -17 -20 -60 -20 -60 0 0 14
-16 15 -117 10 -82 -5 -113 -3 -103 4 26 18 3 23 -42 8 -25 -9 -47 -12 -52 -7
-6 6 -15 2 -22 -8 -11 -14 -16 -15 -33 -4 -12 6 -30 17 -41 22 -11 6 -29 14
-40 20 -20 10 -23 5 -32 -55 -3 -16 -12 -21 -52 -23 -32 -2 -54 -9 -63 -20 -9
-13 -12 -13 -13 -3 0 10 -3 11 -14 2 -7 -6 -21 -8 -30 -5 -11 4 -22 0 -30 -12
-12 -15 -16 -16 -30 -5 -10 8 -30 11 -53 8 -34 -4 -76 4 -165 32 -20 7 -28 5
-32 -5 -12 -30 -119 -2 -130 34 -4 10 -27 34 -52 52 -41 29 -55 33 -118 36
-39 1 -100 6 -136 10 -36 4 -82 8 -102 8 -26 0 -38 5 -41 17 -6 23 -70 35
-104 20 -14 -7 -23 -17 -20 -25 4 -11 1 -11 -19 -2 -13 6 -24 14 -24 19 0 6
24 11 43 8 4 0 7 8 7 20 0 17 -4 19 -22 13 -13 -4 -31 -7 -41 -6 -9 0 -15 -3
-12 -9 4 -5 -1 -9 -11 -9 -13 0 -14 -3 -5 -14 10 -12 8 -16 -11 -22 -38 -12
-219 -6 -334 12 -29 4 -30 6 -25 38 4 21 17 43 34 56 32 25 35 50 7 50 -16 0
-20 7 -20 36 0 52 12 66 78 98 51 24 58 31 54 52 -2 13 -8 22 -12 19 -5 -3 -7
7 -5 22 1 15 10 32 20 38 9 5 26 18 37 27 l21 18 -24 9 c-15 5 -29 5 -36 -1
-9 -7 -13 -7 -13 2 0 10 -3 10 -15 0 -23 -19 -39 1 -30 39 8 36 12 37 37 14
16 -14 18 -15 18 0 0 9 -5 19 -11 23 -6 3 -8 15 -6 26 4 13 -5 29 -25 48 -22
21 -28 34 -23 47 4 10 11 33 15 51 8 32 7 33 -16 28 -22 -6 -23 -4 -13 11 8
14 21 17 55 15 54 -5 71 20 36 49 -12 9 -22 21 -22 26 0 4 -9 14 -21 21 -13 8
-18 19 -14 31 3 10 6 35 7 56 1 20 7 39 15 42 19 7 16 17 -14 54 -34 40 -36
53 -12 75 24 22 25 56 2 53 -30 -3 -43 1 -43 11 0 6 6 10 14 10 13 0 26 20 26
41 0 6 -13 15 -29 20 -27 10 -29 13 -18 36 10 22 8 27 -11 42 -28 21 -21 51
10 43 23 -6 50 21 42 42 -9 24 42 46 115 50 47 2 59 24 37 69 -9 20 -20 38
-25 41 -4 3 -8 22 -9 43 0 32 1 34 8 16 12 -30 30 -29 30 1 0 31 14 40 30 22
10 -12 16 -10 39 16 41 46 58 34 66 -46 4 -37 11 -69 16 -72 5 -3 9 0 9 6 0 6
4 9 8 6 5 -3 7 15 6 39 -2 30 2 47 11 53 8 4 16 25 19 46 6 49 13 56 22 20 4
-16 13 -37 21 -46 15 -17 10 -58 -8 -58 -5 0 -9 -8 -9 -17 0 -15 2 -16 10 -3
7 12 12 12 22 2 19 -19 28 -14 28 17 0 33 17 51 26 27 10 -26 24 -18 24 12 0
28 20 82 30 81 3 0 18 -16 34 -36 26 -30 28 -38 17 -55 -11 -17 -10 -23 2 -35
17 -17 37 -10 37 14 0 13 3 13 15 3 13 -11 15 -8 15 21 l0 34 39 -42 c40 -43
51 -45 51 -9 0 30 48 34 67 6 8 -11 22 -20 32 -20 9 0 22 -5 28 -11 22 -22 40
50 24 94 -6 15 -7 27 -2 27 5 0 12 -11 15 -25 4 -14 13 -25 20 -25 8 0 17 -8
21 -17 6 -17 7 -17 16 0 10 18 39 24 39 8 0 -5 9 -7 21 -4 16 5 19 11 14 34
-4 18 -2 29 4 29 6 0 11 -7 11 -15 0 -9 12 -20 26 -25 22 -9 30 -7 50 15 19
21 28 24 43 16 10 -6 21 -17 25 -26 8 -23 19 -18 44 19 14 21 35 37 53 41 16
4 33 14 38 23 9 15 11 15 28 -1 24 -21 44 -22 37 -2 -3 8 1 22 10 30 15 15 16
15 16 -4 0 -20 37 -91 48 -91 3 0 2 3 -1 7 -4 3 -2 12 5 20 6 7 11 28 11 46
l0 32 10 -27 c6 -16 15 -28 19 -28 12 0 27 42 21 58 -7 17 5 62 17 62 6 0 10
-18 10 -40 0 -27 4 -40 14 -40 14 0 26 29 26 68 0 19 2 21 13 10 7 -7 18 -22
25 -33 9 -15 11 -16 12 -4 0 8 6 24 14 35 11 14 14 15 14 4 -2 -37 3 -61 12
-55 6 3 10 -1 10 -11 0 -13 3 -14 15 -4 12 10 20 9 40 -4 32 -21 35 -20 35 7
0 24 17 47 35 47 5 0 3 -5 -5 -10 -13 -9 -13 -11 0 -20 8 -6 23 -8 32 -6 10 2
21 0 24 -5 11 -19 24 3 19 37 -2 18 0 34 5 34 6 0 10 -7 10 -15 0 -8 5 -15 10
-15 6 0 10 -9 10 -19 0 -11 9 -23 20 -26 11 -3 20 -11 20 -16 0 -6 4 -8 9 -4
5 3 12 1 16 -5 8 -12 109 -3 113 10 6 17 31 11 42 -10 13 -24 30 -18 30 11 0
10 4 19 8 19 5 0 8 -19 8 -42 -1 -39 1 -43 22 -40 13 2 22 -2 22 -10 0 -17 53
-40 74 -32 11 4 16 1 16 -11 0 -13 6 -16 25 -11 17 4 25 2 26 -6 0 -7 7 5 15
27 l13 40 -5 -40 c-5 -33 -3 -38 7 -27 11 10 16 2 30 -40 11 -37 22 -53 33
-53 10 0 22 -9 28 -20 6 -11 13 -22 15 -24 1 -3 15 6 30 20 21 19 25 21 20 6
-25 -70 -18 -85 20 -40 19 21 23 23 23 8 0 -14 3 -15 15 -5 17 14 21 0 4 -17
-7 -7 -7 -13 -1 -17 7 -4 7 -18 0 -42 -11 -42 -4 -71 15 -57 6 6 20 13 30 16
14 5 16 3 8 -11 -11 -20 -4 -36 19 -45 12 -4 11 -6 -2 -6 -11 -1 -18 -9 -18
-21 0 -11 0 -23 0 -27 0 -9 42 -9 58 1 6 4 12 3 12 -2 0 -5 21 -6 48 -1 49 7
72 2 35 -7 -30 -8 -58 -50 -38 -57 7 -3 15 -16 17 -29 3 -20 8 -23 46 -20 36
2 42 0 42 -18 0 -15 7 -20 25 -20 20 0 25 -5 25 -25 0 -16 -6 -25 -16 -25 -24
0 -11 -24 16 -30 29 -7 40 -33 14 -30 -45 5 -63 0 -58 -15 5 -13 9 -13 22 -3
12 10 14 10 8 1 -5 -9 0 -13 18 -13 25 0 40 -23 34 -51 -2 -8 5 -13 14 -13 10
1 20 -7 24 -18 3 -11 22 -27 42 -35 45 -19 55 -32 36 -50 -12 -12 -19 -10 -51
11 -35 24 -38 25 -44 8 -12 -31 1 -72 22 -72 11 0 23 -8 26 -17 4 -10 22 -32
40 -51 18 -18 32 -40 32 -50 -1 -15 -2 -15 -6 0 -2 9 -11 19 -20 22 -16 6 -15
-4 2 -61 5 -15 3 -23 -4 -23 -6 0 -11 9 -11 20 0 13 -5 18 -15 14 -10 -4 -11
-10 -5 -22 21 -36 50 -115 50 -134 0 -20 -1 -20 -18 -5 -23 21 -32 21 -32 2 0
-9 7 -18 15 -21 8 -4 12 -11 8 -17 -3 -6 -1 -7 5 -3 7 4 17 4 24 0 8 -5 6 -10
-8 -14 -15 -6 -12 -9 19 -19 25 -9 37 -18 37 -32 0 -12 9 -21 26 -25 16 -4 24
-12 22 -23 -3 -13 -15 -16 -61 -15 -31 1 -57 -1 -57 -5 0 -15 25 -31 47 -31
13 0 23 -6 22 -12 -3 -29 3 -36 36 -42 31 -6 35 -11 35 -36 0 -18 5 -29 12
-27 19 4 22 -35 3 -46 -24 -13 2 -29 27 -16 11 6 18 6 18 0 0 -5 -11 -12 -25
-15 -14 -4 -25 -11 -25 -16 0 -6 -7 -10 -16 -10 -11 0 -13 -6 -9 -19 5 -17 0
-21 -30 -27 -40 -7 -47 -17 -50 -73 -3 -51 -4 -53 -16 -45 -7 4 -9 21 -6 40 6
33 -6 54 -18 35 -14 -24 -7 -80 14 -110 12 -17 21 -31 19 -32 -28 -7 -48 -4
-44 8 3 7 -1 13 -9 13 -20 0 -19 -10 5 -40 26 -33 25 -44 -5 -74 -13 -13 -27
-37 -30 -53 -4 -15 -11 -36 -16 -46 -5 -10 -14 -55 -19 -100 -10 -77 -36 -157
-52 -157 -5 0 -8 -5 -8 -11 0 -7 -10 -20 -22 -30 -18 -16 -19 -19 -4 -19 10 0
26 5 38 11 27 15 31 7 23 -46 -6 -43 -8 -46 -30 -41 -13 3 -31 3 -40 0 -14 -6
-11 -12 15 -39 l31 -32 -27 -7 c-15 -4 -30 -3 -33 3 -4 5 -15 8 -26 6 -11 -2
-24 -4 -29 -4 -4 -1 -5 -8 -2 -17 9 -24 -3 -37 -22 -22 -13 12 -14 10 -4 -9 7
-12 12 -37 12 -57 0 -19 5 -47 10 -61 9 -23 14 -26 38 -20 34 8 33 7 35 41 2
20 12 34 35 47 52 31 56 16 33 -124 -17 -102 -18 -137 -10 -194 12 -82 3 -284
-17 -370 -34 -151 -103 -284 -173 -331 -40 -27 -92 -31 -115 -9 -8 8 -19 15
-25 15 -6 0 -11 7 -11 16 0 26 -20 54 -34 48 -18 -7 -26 -47 -12 -61 29 -28
47 -56 41 -61 -3 -4 -10 0 -14 7 -27 42 -64 -77 -66 -211 -1 -61 -6 -102 -14
-112 -18 -21 -32 -88 -21 -101 5 -6 2 -27 -5 -49 -8 -22 -12 -43 -9 -48 3 -5
0 -7 -7 -6 -7 2 -18 -8 -26 -22 -7 -14 -16 -24 -20 -23 -5 1 -9 -12 -10 -29
-1 -17 -8 -37 -14 -44 -7 -8 -10 -17 -7 -20 8 -7 40 45 33 55 -3 5 2 16 10 24
8 9 15 24 15 33 0 13 3 15 11 7 8 -8 6 -19 -5 -41 -24 -47 -20 -64 30 -117 85
-93 159 -181 199 -238 36 -52 43 -57 70 -52 17 3 86 8 155 11 135 6 127 7 345
-60 l120 -37 100 18 c116 20 335 22 435 4 36 -7 121 -25 190 -41 69 -16 164
-37 213 -48 l87 -19 0 2964 0 2963 -3430 0 -3430 0 0 -2580z m4334 1812 c-5
-4 -11 -25 -13 -47 -1 -21 -4 -42 -7 -44 -6 -6 -3 80 3 92 2 4 10 7 16 7 8 0
9 -3 1 -8z m-54 -66 c0 -3 -4 -8 -10 -11 -5 -3 -10 -1 -10 4 0 6 5 11 10 11 6
0 10 -2 10 -4z m-350 -50 c0 -8 -4 -18 -10 -21 -5 -3 -10 3 -10 14 0 12 5 21
10 21 6 0 10 -6 10 -14z m-960 -65 c0 -23 -16 -36 -25 -21 -9 14 1 40 15 40 5
0 10 -9 10 -19z m338 -52 c-3 -8 -7 -3 -11 10 -4 17 -3 21 5 13 5 -5 8 -16 6
-23z m-528 -50 c0 -10 -4 -19 -10 -19 -5 0 -10 12 -10 26 0 14 4 23 10 19 6
-3 10 -15 10 -26z m2101 -50 c-9 -22 -10 -22 -10 -3 -1 11 2 24 6 27 12 12 14
0 4 -24z m-2465 -105 c24 -25 33 -74 14 -74 -5 0 -12 12 -16 28 -9 41 -12 49
-13 30 -1 -10 -5 -18 -10 -18 -16 0 -23 20 -12 34 6 7 8 16 4 19 -3 4 -3 7 2
7 4 0 18 -11 31 -26z m-61 -46 c-3 -61 -13 -98 -26 -98 -14 0 -29 47 -28 88
l1 37 13 -29 13 -30 7 42 c10 59 23 52 20 -10z m207 37 c0 -5 -5 -11 -11 -13
-6 -2 -11 4 -11 13 0 9 5 15 11 13 6 -2 11 -8 11 -13z m-323 -112 c0 -31 -2
-34 -9 -18 -12 28 -12 55 0 55 6 0 10 -17 9 -37z m138 -225 c-3 -8 -6 -5 -6 6
-1 11 2 17 5 13 3 -3 4 -12 1 -19z m33 -52 c0 -2 -7 -9 -15 -16 -13 -11 -14
-10 -9 4 5 14 24 23 24 12z m-60 -80 c0 -3 -4 -8 -10 -11 -5 -3 -10 -1 -10 4
0 6 5 11 10 11 6 0 10 -2 10 -4z m-50 -66 c0 -5 -5 -10 -11 -10 -5 0 -7 5 -4
10 3 6 8 10 11 10 2 0 4 -4 4 -10z m-9 -63 c-13 -13 -15 1 -4 30 7 17 8 17 11
-1 2 -10 -1 -23 -7 -29z m79 -2 c34 -17 36 -23 17 -50 -10 -12 -16 -14 -21 -7
-4 7 -18 12 -31 12 -29 0 -43 18 -21 26 9 3 16 12 16 20 0 18 4 18 40 -1z
m-472 -63 c-7 -9 -17 -20 -22 -24 -17 -12 -46 12 -46 37 0 13 -4 27 -10 30 -5
3 -10 10 -10 16 0 5 23 -2 51 -16 45 -23 49 -28 37 -43z m349 -164 c-3 -8 -6
-5 -6 6 -1 11 2 17 5 13 3 -3 4 -12 1 -19z m-531 -124 c13 -3 24 -12 24 -20 0
-8 5 -14 11 -14 8 0 8 -4 0 -14 -15 -18 -61 -26 -83 -15 -22 12 -24 31 -3 23
19 -8 21 26 3 45 -11 11 -10 13 5 7 11 -3 30 -9 43 -12z m-40 -106 c-9 -5 -16
-15 -16 -22 0 -19 25 -27 41 -13 11 10 11 9 0 -5 -7 -10 -24 -18 -37 -18 -15
0 -24 -6 -24 -15 0 -8 7 -15 16 -15 10 0 14 -7 12 -22 -2 -18 -9 -22 -27 -20
-20 2 -23 -1 -19 -23 6 -28 -2 -31 -35 -14 -22 11 -56 48 -57 60 0 4 14 12 30
19 34 14 38 25 13 39 -24 14 -13 14 27 0 25 -9 34 -9 40 2 12 19 3 29 -26 29
-14 0 -24 6 -24 15 0 8 6 12 14 9 8 -3 16 -1 20 4 3 5 19 7 37 4 25 -4 29 -6
15 -14z m-176 -68 c0 -5 -4 -10 -10 -10 -5 0 -10 5 -10 10 0 6 5 10 10 10 6 0
10 -4 10 -10z m167 -206 c-3 -3 -12 -4 -19 -1 -8 3 -5 6 6 6 11 1 17 -2 13 -5z
m4053 -38 c0 -11 -19 -15 -25 -6 -3 5 1 10 9 10 9 0 16 -2 16 -4z m-10 -146
c0 -5 -5 -10 -11 -10 -5 0 -7 5 -4 10 3 6 8 10 11 10 2 0 4 -4 4 -10z m-50
-60 c0 -5 -7 -7 -15 -4 -8 4 -15 8 -15 10 0 2 7 4 15 4 8 0 15 -4 15 -10z
m-2670 -40 c0 -11 -7 -20 -15 -20 -15 0 -21 21 -8 33 12 13 23 7 23 -13z m356
-55 c13 -13 12 -15 -11 -21 -28 -7 -52 7 -41 25 10 15 35 14 52 -4z m834 -21
c0 -8 -4 -12 -10 -9 -5 3 -10 10 -10 16 0 5 5 9 10 9 6 0 10 -7 10 -16z
m-1238 -9 c15 -2 41 -11 57 -21 78 -51 111 -75 111 -83 0 -4 11 -13 25 -19 18
-9 25 -19 25 -41 0 -16 6 -31 15 -35 26 -10 18 -34 -10 -28 -14 2 -25 10 -25
16 0 6 -45 21 -102 34 -57 13 -130 32 -162 43 -33 10 -72 19 -87 19 -14 0 -32
6 -38 14 -7 8 -26 18 -42 21 -21 5 -29 11 -25 21 3 8 0 14 -7 15 -7 0 -4 4 6
8 10 4 17 10 15 15 -2 4 8 14 22 22 23 14 95 14 222 -1z m1642 -61 c22 -8 20
-21 -4 -29 -11 -4 -18 -10 -15 -15 3 -5 1 -11 -5 -15 -18 -11 -11 -23 17 -30
26 -6 37 -16 69 -62 22 -31 10 -44 -24 -27 -15 7 -75 21 -132 30 -108 17 -181
12 -266 -18 -17 -6 -43 -8 -58 -4 -24 6 -25 8 -11 22 9 9 13 25 10 37 -4 17 1
25 22 35 15 6 35 12 45 12 10 0 18 4 18 9 0 9 94 27 120 22 62 -9 73 -10 67
-5 -3 4 -2 15 4 25 8 15 21 19 69 19 32 0 65 -3 74 -6z m301 -14 c76 -13 106
-20 129 -32 36 -18 56 -40 48 -52 -4 -6 -17 -38 -27 -71 -11 -33 -27 -69 -37
-79 -10 -11 -20 -28 -24 -38 -3 -10 -10 -18 -15 -18 -5 0 -9 -9 -9 -20 0 -11
-3 -20 -7 -20 -5 0 -7 28 -5 62 4 78 -8 97 -63 101 l-40 2 -2 -42 c-2 -24 2
-43 7 -43 6 0 10 -4 10 -9 0 -5 -27 4 -60 21 -58 29 -73 41 -47 37 35 -4 66 3
71 17 8 21 -13 61 -24 45 -5 -9 -9 -9 -13 3 -4 10 -1 16 8 16 8 0 15 3 15 7 0
13 -43 53 -57 53 -8 0 -21 7 -29 15 -10 9 -24 13 -40 9 -30 -8 -54 10 -47 36
5 19 12 20 107 14 55 -3 124 -10 151 -14z m-895 -59 c0 -12 -20 -25 -27 -18
-7 7 6 27 18 27 5 0 9 -4 9 -9z m735 -53 c1 -31 -2 -35 -16 -27 -18 9 -29 31
-29 56 0 9 8 13 23 11 18 -2 22 -9 22 -40z m-2271 -53 c34 -25 4 -40 -71 -37
-25 2 -33 7 -33 20 0 10 3 22 7 25 12 12 78 7 97 -8z m3076 -202 c0 -45 -4
-84 -9 -87 -4 -3 -8 -23 -8 -43 0 -21 -10 -59 -22 -86 -24 -53 -34 -61 -21
-18 6 21 4 33 -8 44 -13 13 -13 20 -2 47 7 18 14 53 14 78 1 27 9 58 19 72 9
13 17 43 17 65 0 29 3 36 10 25 5 -8 10 -52 10 -97z m-1815 23 c44 -19 60 -46
80 -135 18 -78 97 -245 152 -322 42 -59 76 -136 69 -155 -3 -8 -14 -14 -23
-12 -34 6 -27 -38 10 -66 19 -14 38 -26 43 -26 19 0 75 -61 94 -102 27 -59 26
-80 -3 -76 -13 1 -34 -5 -48 -13 -13 -9 -41 -18 -61 -21 -30 -3 -38 0 -42 15
-3 14 -10 18 -22 13 -10 -4 -21 -1 -26 6 -5 9 -8 6 -8 -9 0 -30 -43 -57 -89
-56 -19 1 -48 -5 -63 -13 -38 -19 -47 -18 -60 11 -7 16 -19 25 -34 25 -13 0
-25 4 -28 9 -3 4 -23 11 -43 15 -44 7 -94 47 -96 76 -1 11 -5 20 -9 20 -4 0
-8 5 -8 11 0 7 -8 17 -17 24 -15 11 -18 32 -19 141 -1 112 1 130 17 148 11 11
19 32 19 47 0 15 5 29 12 31 6 2 11 18 11 36 0 18 5 32 10 32 5 0 6 8 2 18
-11 28 -14 82 -4 88 5 3 7 9 4 14 -3 4 1 38 9 74 7 36 11 76 9 88 -6 29 23 57
69 68 49 12 55 11 93 -4z m730 -30 c19 -8 35 -13 35 -10 0 3 10 -4 22 -15 16
-15 25 -18 34 -10 22 18 63 -21 53 -49 -7 -17 -5 -22 9 -23 28 -1 65 -9 71
-15 3 -3 -4 -14 -16 -24 -25 -20 -20 -34 7 -20 9 5 27 11 41 13 13 2 32 8 43
12 23 10 70 -16 74 -42 2 -16 -7 -18 -88 -21 -64 -2 -96 1 -107 10 -21 17
-133 18 -133 1 0 -7 11 -13 24 -13 14 0 28 -5 31 -11 4 -6 13 -8 20 -6 25 10
195 -22 219 -41 40 -31 19 -46 -45 -32 -30 6 -100 12 -156 13 -91 2 -105 4
-125 25 -16 16 -18 22 -8 22 12 0 12 2 2 9 -18 11 0 41 37 65 l26 16 -38 -6
c-37 -5 -118 23 -133 47 -3 5 -24 9 -46 9 -27 0 -45 6 -54 18 -21 27 -16 42
12 42 18 0 25 5 23 18 -1 9 -1 20 0 25 2 13 131 7 166 -7z m-1415 -36 c0 -6
-8 -19 -17 -30 -15 -15 -33 -18 -116 -18 -105 0 -140 5 -132 18 7 11 67 20
148 22 37 1 70 5 73 10 7 12 44 10 44 -2z m950 -54 c0 -3 -9 -21 -21 -40 -18
-31 -19 -37 -6 -42 9 -3 23 -23 31 -45 9 -21 20 -39 25 -39 5 0 29 -18 53 -40
23 -22 70 -56 102 -76 55 -33 65 -35 140 -35 53 0 95 5 120 16 22 9 47 18 55
20 9 2 56 16 105 30 l89 26 28 -20 c16 -12 32 -21 36 -21 5 0 24 -13 43 -30
l35 -30 -25 -20 c-14 -11 -31 -20 -39 -20 -11 0 -10 -4 3 -19 10 -11 15 -25
11 -30 -4 -7 3 -11 17 -11 20 -1 21 -2 6 -11 -10 -5 -84 -18 -165 -28 -150
-19 -338 -19 -378 -1 -11 5 -38 16 -60 25 -51 20 -31 36 34 27 83 -12 391 -6
391 8 0 21 -61 31 -137 23 -93 -9 -131 -9 -281 2 l-114 8 -38 51 c-45 60 -130
236 -130 271 0 13 10 31 22 39 21 15 48 21 48 12z m-926 -56 c7 -7 4 -10 -10
-10 -11 0 -25 -5 -32 -12 -9 -9 -12 -9 -12 0 0 20 -17 14 -23 -8 -4 -16 -10
-19 -29 -12 -12 5 -28 7 -34 5 -7 -2 -11 4 -10 14 1 15 -9 18 -64 20 -39 2
-60 0 -52 -6 11 -7 10 -9 -3 -14 -9 -4 -18 -1 -21 8 -7 18 -25 20 -21 3 3 -16
-32 -23 -47 -8 -8 8 -7 14 6 24 21 16 336 12 352 -4z m-467 -37 c26 -20 50
-40 51 -45 2 -4 10 -8 17 -8 7 0 23 -8 35 -18 19 -15 21 -22 12 -38 -6 -10
-12 -13 -12 -6 0 6 -11 12 -25 12 -14 0 -25 5 -25 10 0 6 -6 10 -14 10 -7 0
-25 9 -39 20 -14 11 -34 20 -44 20 -10 0 -26 9 -36 20 -10 12 -23 18 -29 14
-8 -5 -9 -2 -5 10 4 10 7 22 7 27 0 23 61 7 107 -28z m290 -30 c-3 -3 -11 -2
-17 2 -9 6 -9 10 1 16 14 8 27 -7 16 -18z m-47 -34 c0 -5 -7 -6 -15 -3 -8 4
-15 13 -15 21 0 13 3 13 15 3 8 -7 15 -16 15 -21z m389 -44 c1 -43 -2 -53 -13
-49 -9 3 -29 -10 -49 -31 -23 -25 -42 -36 -58 -35 -13 1 -28 1 -34 0 -5 -1
-28 -3 -50 -4 -32 -1 -39 -4 -37 -19 5 -29 -25 -30 -62 -2 -30 23 -44 27 -88
24 -29 -1 -72 1 -96 5 -36 7 -43 12 -40 30 2 17 9 20 33 18 186 -17 239 -12
294 30 13 10 33 18 43 18 11 0 33 9 49 21 16 11 33 18 38 15 4 -3 16 3 26 14
31 34 42 25 44 -35z m1911 -74 c2 -1 -1 -6 -8 -13 -7 -7 -12 -25 -12 -40 0
-15 -4 -28 -10 -28 -5 0 -10 20 -10 44 0 37 3 44 18 41 9 -2 19 -4 22 -4z
m-2554 -50 c16 1 49 -6 73 -15 24 -9 59 -16 78 -16 19 0 43 -5 54 -11 12 -6
82 -10 166 -10 151 -1 175 -11 63 -28 -78 -11 -281 -6 -289 8 -10 16 -102 43
-155 46 -28 1 -52 8 -56 16 -11 17 10 32 26 18 6 -5 25 -9 40 -8z m824 -9 c0
-15 -2 -15 -10 -2 -13 20 -13 33 0 25 6 -3 10 -14 10 -23z m-260 -2 c0 -5 -5
-10 -11 -10 -5 0 -7 5 -4 10 3 6 8 10 11 10 2 0 4 -4 4 -10z m179 -52 c-12
-23 -16 -23 -30 3 -8 17 -8 23 1 29 20 12 40 -11 29 -32z m1744 -103 c-7 -21
-13 -19 -13 6 0 11 4 18 10 14 5 -3 7 -12 3 -20z m-2096 -4 c89 -4 165 -10
169 -13 15 -16 -10 -48 -51 -63 -24 -10 -56 -30 -71 -46 -15 -16 -33 -29 -40
-29 -6 0 -17 -7 -24 -15 -7 -8 -22 -15 -33 -15 -11 0 -29 -10 -41 -22 -61 -64
-134 -88 -154 -51 -8 13 -19 15 -62 10 -63 -8 -91 4 -83 34 4 15 2 20 -5 15
-6 -3 -14 -1 -17 5 -4 5 -13 8 -21 5 -8 -3 -14 1 -14 8 0 8 -7 17 -15 20 -9 3
-15 11 -14 18 3 25 -14 57 -32 63 -25 8 -24 17 4 44 43 40 160 47 504 32z
m344 -57 c8 -8 19 -14 24 -14 15 0 34 -35 35 -63 0 -15 -7 -43 -14 -62 -12
-29 -20 -35 -45 -35 -31 0 -61 22 -61 45 0 16 -40 56 -49 50 -4 -2 -7 4 -8 13
-1 10 -3 23 -5 31 -2 8 12 25 31 38 36 24 61 23 92 -3z m-315 -259 c4 -8 17
-15 30 -15 30 0 30 -1 -1 -46 -14 -20 -25 -45 -25 -55 0 -11 -7 -19 -17 -20
-14 0 -14 -2 4 -9 19 -8 20 -13 13 -47 -6 -23 -5 -42 0 -47 7 -7 10 -3 10 8 0
12 5 16 14 13 8 -3 17 1 20 9 3 8 15 14 27 14 19 0 21 -4 15 -31 l-6 -30 45 5
c25 2 47 0 50 -5 10 -15 25 -10 25 8 0 33 26 -19 29 -57 8 -95 5 -143 -7 -147
-6 -3 -15 4 -20 15 -4 11 -21 32 -39 46 -30 25 -32 31 -26 72 5 40 4 44 -15
44 -34 0 -73 -22 -67 -38 13 -36 16 -60 6 -66 -20 -12 -12 -29 11 -23 19 5 20
5 5 -10 -22 -22 -63 -10 -71 22 -4 14 -13 25 -21 25 -8 0 -15 5 -15 11 0 15
-26 39 -34 32 -3 -4 -6 -16 -6 -29 0 -13 -8 -24 -19 -27 -15 -4 -18 -11 -14
-28 l5 -24 -16 22 c-13 17 -14 27 -6 42 15 29 13 31 -25 31 -19 0 -35 -4 -35
-10 0 -5 -4 -10 -10 -10 -5 0 -10 6 -10 14 0 8 -13 19 -30 25 -36 12 -40 26
-5 17 25 -6 25 -6 19 47 -5 45 -4 55 11 61 9 3 21 4 26 0 5 -3 9 2 9 10 0 12
9 15 32 13 33 -3 61 -32 42 -45 -8 -6 -11 -53 -4 -72 1 -3 2 -14 2 -25 -1 -17
0 -17 4 -2 3 9 9 17 14 17 14 0 20 31 10 50 -9 16 -5 22 20 35 39 20 35 35
-18 59 -42 20 -55 36 -27 36 17 0 20 17 4 22 -8 3 -6 16 5 42 24 58 69 85 82
51z m-108 -55 c-7 -10 -14 -18 -15 -16 -6 6 9 36 18 36 5 0 4 -9 -3 -20z
m1267 10 c3 -5 1 -10 -4 -10 -6 0 -11 5 -11 10 0 6 2 10 4 10 3 0 8 -4 11 -10z
m5 -46 c5 -1 13 -3 18 -4 11 -4 26 -8 40 -9 10 -1 9 -6 -4 -18 -16 -17 -16
-18 -1 -21 12 -2 17 -13 17 -36 0 -18 13 -58 29 -89 16 -31 27 -57 24 -57 -4
0 2 -9 11 -19 10 -11 15 -24 12 -29 -3 -6 0 -27 7 -48 16 -47 16 -76 1 -81 -6
-2 -14 11 -18 29 -4 20 -2 34 4 36 12 4 3 22 -11 22 -5 0 -9 -9 -9 -20 0 -11
-4 -20 -10 -20 -5 0 -10 5 -10 12 0 6 -2 9 -5 6 -3 -2 0 -19 6 -37 6 -18 9
-35 5 -38 -8 -8 -46 36 -46 54 0 7 -4 13 -10 13 -5 0 -10 -7 -10 -16 0 -13 -3
-14 -15 -4 -12 10 -16 9 -21 -4 -5 -12 -10 -14 -19 -6 -11 9 -18 5 -31 -15
l-17 -27 -14 26 c-13 25 -15 25 -42 11 -27 -13 -30 -13 -45 8 l-16 22 -16 -22
c-19 -27 -41 -29 -64 -8 -15 14 -18 14 -30 0 -17 -21 -37 -19 -45 4 -7 23 -47
40 -53 23 -2 -6 -9 -9 -17 -6 -7 3 -16 0 -20 -5 -3 -6 -11 -9 -16 -6 -12 8
-11 35 1 35 12 0 59 50 60 63 0 4 10 23 23 42 14 23 30 35 45 35 20 0 23 5 21
28 -4 32 4 46 54 91 29 27 40 32 49 23 20 -20 40 -15 33 8 -5 15 -2 20 12 21
10 0 13 3 5 6 -15 6 -6 23 14 23 8 0 14 -7 14 -15 0 -28 49 -18 68 14 11 20
19 26 24 18 4 -7 12 -13 18 -13z m-1123 -101 c-3 -10 -5 -4 -5 12 0 17 2 24 5
18 2 -7 2 -21 0 -30z m-837 -225 c8 -13 13 -27 12 -32 -2 -4 7 -24 18 -43 13
-23 22 -59 25 -102 4 -68 16 -129 30 -152 8 -12 19 -56 34 -135 7 -38 6 -40
-16 -36 -28 5 -48 27 -33 37 16 10 12 23 -7 21 -11 0 -17 5 -15 15 2 17 -43
43 -59 34 -5 -4 -9 1 -9 10 0 11 5 15 14 12 7 -3 19 0 25 6 8 8 3 18 -19 38
-16 16 -30 37 -30 49 0 14 -4 19 -12 14 -10 -6 -10 -4 -2 7 6 8 10 30 9 49 -3
31 -12 114 -16 137 -1 4 2 19 6 31 6 18 10 21 17 10 7 -9 8 -2 4 20 -6 37 3
41 24 10z m560 12 c0 -5 -4 -10 -10 -10 -5 0 -10 5 -10 10 0 6 5 10 10 10 6 0
10 -4 10 -10z m1730 -191 c0 -5 5 -7 10 -4 15 9 12 -21 -3 -33 -8 -7 -18 -7
-27 -2 -12 8 -12 10 3 10 10 0 15 5 12 10 -4 6 -11 8 -16 5 -10 -7 -12 8 -2
18 10 10 23 8 23 -4z m520 -114 c0 -5 -5 -3 -10 5 -5 8 -10 20 -10 25 0 6 5 3
10 -5 5 -8 10 -19 10 -25z m-2785 -194 c0 -12 7 -28 16 -34 21 -16 24 -87 3
-87 -8 0 -12 5 -9 10 3 6 1 10 -5 10 -5 0 -10 12 -9 28 1 15 -3 40 -10 55 -14
37 -14 50 2 44 6 -2 12 -14 12 -26z m49 -163 c9 -17 16 -33 16 -35 0 -10 -21
0 -44 24 -20 20 -24 28 -14 35 21 13 26 10 42 -24z m22 -186 c25 -20 38 -49
35 -78 -1 -12 5 -24 13 -27 9 -4 16 -13 16 -20 0 -12 -8 -10 -40 5 -22 11 -40
24 -40 28 0 4 -9 10 -20 13 -16 4 -20 14 -20 45 0 35 8 48 30 51 3 0 14 -7 26
-17z m764 -316 c0 -3 -4 -8 -10 -11 -5 -3 -10 -1 -10 4 0 6 5 11 10 11 6 0 10
-2 10 -4z m290 -1966 c0 -5 -2 -10 -4 -10 -3 0 -8 5 -11 10 -3 6 -1 10 4 10 6
0 11 -4 11 -10z"/>
<path d="M4871 5869 c-1 -18 46 -33 55 -18 3 5 -6 9 -20 9 -13 0 -27 6 -29 13
-4 7 -6 6 -6 -4z"/>
<path d="M2970 4419 c0 -5 5 -7 10 -4 6 3 10 8 10 11 0 2 -4 4 -10 4 -5 0 -10
-5 -10 -11z"/>
<path d="M2654 7817 c3 -10 6 -25 6 -33 0 -8 5 -14 11 -14 12 0 2 40 -14 55
-7 7 -8 4 -3 -8z"/>
<path d="M2610 7780 c0 -5 5 -10 10 -10 6 0 10 5 10 10 0 6 -4 10 -10 10 -5 0
-10 -4 -10 -10z"/>
<path d="M5410 7080 c0 -5 5 -10 11 -10 5 0 7 5 4 10 -3 6 -8 10 -11 10 -2 0
-4 -4 -4 -10z"/>
<path d="M2580 6604 c0 -8 5 -12 10 -9 6 3 10 10 10 16 0 5 -4 9 -10 9 -5 0
-10 -7 -10 -16z"/>
<path d="M2464 6419 c0 -21 4 -23 25 -10 11 7 10 11 -6 19 -15 9 -19 7 -19 -9z"/>
<path d="M5632 6418 c2 -6 10 -14 16 -16 7 -2 10 2 6 12 -7 18 -28 22 -22 4z"/>
<path d="M2410 6380 c0 -5 5 -10 10 -10 6 0 10 5 10 10 0 6 -4 10 -10 10 -5 0
-10 -4 -10 -10z"/>
<path d="M2575 6359 c-4 -5 -10 -7 -15 -4 -13 8 -31 -30 -24 -49 4 -11 19 -16
46 -16 38 0 40 -2 36 -25 -6 -31 -4 -31 51 0 23 14 54 25 67 25 34 0 30 16 -6
29 -25 8 -32 7 -37 -4 -3 -8 -9 -15 -14 -15 -4 0 -6 7 -3 15 4 10 0 15 -12 15
-11 0 -33 9 -51 20 -19 11 -35 15 -38 9z"/>
<path d="M2434 6279 c-19 -21 -19 -21 11 -17 19 2 31 10 33 21 5 24 -21 22
-44 -4z"/>
<path d="M5497 6183 c-4 -3 -7 -11 -7 -17 0 -6 5 -5 12 2 6 6 9 14 7 17 -3 3
-9 2 -12 -2z"/>
<path d="M5202 6150 c0 -14 2 -19 5 -12 2 6 2 18 0 25 -3 6 -5 1 -5 -13z"/>
<path d="M3720 6127 c0 -27 17 -47 40 -47 9 0 11 3 4 8 -6 4 -14 19 -18 35 -8
33 -26 36 -26 4z"/>
<path d="M3422 6115 c-42 -15 -30 -25 27 -24 25 0 40 3 33 6 -6 2 -10 8 -7 13
9 14 -19 17 -53 5z"/>
<path d="M5390 5639 c0 -5 5 -7 10 -4 6 3 10 8 10 11 0 2 -4 4 -10 4 -5 0 -10
-5 -10 -11z"/>
<path d="M4995 5060 c3 -5 8 -10 11 -10 2 0 4 5 4 10 0 6 -5 10 -11 10 -5 0
-7 -4 -4 -10z"/>
<path d="M5327 4909 c-9 -6 -17 -14 -17 -19 0 -16 30 -11 37 5 8 21 1 25 -20
14z"/>
<path d="M4700 4770 c0 -5 5 -10 11 -10 5 0 7 -5 3 -11 -4 -8 1 -9 17 -4 19 6
21 5 12 -5 -8 -9 -9 -19 0 -37 7 -17 8 -27 0 -31 -12 -8 -33 -47 -33 -62 0 -7
6 -8 19 0 16 8 21 6 26 -11 6 -17 9 -18 16 -8 9 16 23 5 24 -19 4 -55 6 -63
15 -57 17 11 28 -59 25 -160 -5 -117 -13 -167 -28 -158 -6 3 -7 1 -3 -5 4 -6
-3 -25 -15 -42 -19 -25 -21 -34 -11 -54 9 -19 8 -27 -3 -36 -8 -7 -13 -16 -10
-20 3 -4 -2 -10 -10 -14 -8 -3 -15 -17 -15 -31 0 -15 -6 -25 -14 -25 -15 0
-19 -10 -31 -69 -7 -32 -41 -100 -56 -111 -10 -7 2 -61 12 -54 5 3 9 -2 9 -10
0 -8 5 -18 12 -22 7 -4 8 -3 4 4 -4 7 -2 12 3 12 6 0 11 8 11 18 0 10 11 42
25 70 14 29 25 60 25 70 0 10 21 60 46 112 37 75 44 99 39 127 -3 18 -2 33 3
33 17 0 45 52 33 60 -9 5 -8 19 4 54 9 26 13 55 10 65 -3 12 0 21 10 25 8 3
15 12 15 21 0 8 4 15 9 15 17 0 22 62 6 86 -8 12 -15 39 -17 61 -2 33 -21 87
-47 133 -5 8 -18 14 -29 13 -15 -2 -22 4 -24 20 -2 16 -9 21 -26 20 -12 -2
-22 2 -22 7 0 6 6 10 13 10 6 0 -3 9 -21 20 -37 23 -42 24 -42 10z m150 -110
c0 -5 -4 -10 -10 -10 -5 0 -10 5 -10 10 0 6 5 10 10 10 6 0 10 -4 10 -10z m70
-220 c0 -5 -5 -10 -11 -10 -5 0 -7 5 -4 10 3 6 8 10 11 10 2 0 4 -4 4 -10z
m-120 -330 c0 -5 -2 -10 -4 -10 -3 0 -8 5 -11 10 -3 6 -1 10 4 10 6 0 11 -4
11 -10z"/>
<path d="M4590 4640 c0 -5 5 -10 11 -10 5 0 7 5 4 10 -3 6 -8 10 -11 10 -2 0
-4 -4 -4 -10z"/>
<path d="M4750 4410 c0 -5 5 -10 10 -10 6 0 10 5 10 10 0 6 -4 10 -10 10 -5 0
-10 -4 -10 -10z"/>
<path d="M2745 4001 c-3 -5 -1 -12 5 -16 5 -3 10 1 10 9 0 18 -6 21 -15 7z"/>
<path d="M3890 4000 c0 -5 9 -10 20 -10 11 0 20 5 20 10 0 6 -9 10 -20 10 -11
0 -20 -4 -20 -10z"/>
<path d="M4005 3930 c3 -5 10 -10 16 -10 5 0 9 5 9 10 0 6 -7 10 -16 10 -8 0
-12 -4 -9 -10z"/>
<path d="M3040 3890 c0 -5 7 -10 15 -10 8 0 15 5 15 10 0 6 -7 10 -15 10 -8 0
-15 -4 -15 -10z"/>
<path d="M3048 3794 c6 -10 16 -33 22 -51 8 -22 17 -30 28 -26 13 4 14 3 4 -5
-9 -6 -11 -18 -6 -36 5 -21 9 -24 20 -15 8 6 14 19 14 29 0 17 16 26 70 39 40
10 28 25 -28 34 -34 6 -52 13 -52 23 0 8 -8 14 -17 14 -10 0 -29 3 -41 7 -21
5 -23 4 -14 -13z"/>
<path d="M4910 3745 c-14 -27 -5 -49 10 -25 9 14 14 50 7 50 -2 0 -10 -11 -17
-25z"/>
<path d="M4646 3634 c-4 -9 -4 -19 -1 -22 2 -3 7 3 11 12 4 9 4 19 1 22 -2 3
-7 -3 -11 -12z"/>
<path d="M4592 3511 c-12 -21 -22 -49 -21 -62 0 -14 3 -18 5 -9 3 8 14 34 26
58 26 55 19 64 -10 13z"/>
<path d="M4549 3397 c-22 -30 -60 -117 -50 -117 9 0 75 129 70 134 -2 2 -11
-6 -20 -17z"/>
<path d="M3580 3100 c0 -5 5 -10 10 -10 6 0 10 5 10 10 0 6 -4 10 -10 10 -5 0
-10 -4 -10 -10z"/>
<path d="M3545 3080 c3 -5 11 -10 16 -10 6 0 7 5 4 10 -3 6 -11 10 -16 10 -6
0 -7 -4 -4 -10z"/>
<path d="M2550 2680 c0 -5 3 -10 8 -10 4 0 22 -23 41 -51 38 -59 49 -60 21 -2
-18 38 -70 85 -70 63z"/>
<path d="M2750 2591 c0 -5 5 -13 10 -16 6 -3 10 -2 10 4 0 5 -4 13 -10 16 -5
3 -10 2 -10 -4z"/>
<path d="M4150 1935 c-8 -9 -8 -15 -2 -15 12 0 26 19 19 26 -2 2 -10 -2 -17
-11z"/>
<path d="M4972 1761 c-23 -21 -59 -47 -80 -56 -55 -26 -93 -56 -89 -69 2 -6
-2 -16 -10 -21 -7 -6 -14 -25 -16 -42 -1 -18 -5 -33 -9 -33 -5 0 -8 -8 -8 -18
0 -20 -33 -52 -55 -52 -8 0 -15 -7 -15 -16 0 -11 -6 -14 -20 -9 -11 4 -20 2
-20 -4 0 -6 -6 -11 -14 -11 -22 0 -7 -37 17 -44 23 -6 40 4 19 11 -6 3 -9 9
-6 15 4 5 16 0 30 -13 20 -19 28 -21 48 -11 19 9 27 7 39 -6 8 -9 17 -24 19
-32 5 -16 68 108 68 133 0 7 11 24 25 37 14 13 25 29 25 35 0 6 20 42 45 79
25 38 45 72 45 77 0 4 5 9 12 11 16 6 21 78 5 78 -7 -1 -31 -18 -55 -39z"/>
<path d="M2582 1568 c-19 -64 -21 -77 -6 -71 13 5 31 89 21 99 -3 3 -10 -10
-15 -28z"/>
<path d="M3506 1393 c10 -18 22 -33 26 -33 15 0 8 17 -19 41 l-26 24 19 -32z"/>
<path d="M4546 1311 c-19 -7 -19 -8 2 -13 15 -4 22 -2 22 8 0 8 -1 14 -2 13
-2 0 -12 -4 -22 -8z"/>
<path d="M4086 778 c-9 -24 -21 -53 -26 -65 -5 -13 -15 -23 -21 -23 -8 0 -10
-12 -6 -35 3 -21 2 -33 -4 -30 -14 9 -10 -6 15 -54 l23 -44 6 64 c3 35 15 101
25 147 22 89 16 107 -12 40z"/>
</g>
</svg>
